<?xml version="1.0" standalone="no"?><!DOCTYPE svg PUBLIC "-//W3C//DTD SVG 1.1//EN" "http://www.w3.org/Graphics/SVG/1.1/DTD/svg11.dtd"><svg t="1755595162201" class="icon" viewBox="0 0 1151 1024" version="1.1" xmlns="http://www.w3.org/2000/svg" p-id="7492" xmlns:xlink="http://www.w3.org/1999/xlink" width="224.8046875" height="200"><path d="M496.634743 600.887529c-16.123445 30.711324-44.147528 81.129081-77.866003 130.2672-53.936763 78.44184-91.238225 108.449363-112.67217 119.902127a21.305981 21.305981 0 0 1-27.832138-7.229957c-24.313132-36.597661-70.955955-133.210368-113.951808-304.298036-45.939022-182.47645-61.294684-350.30104-37.301463-408.204682 3.710952-9.021451 14.651861-12.796385 23.097475-7.805795 32.438836 19.066614 113.056062 88.614966 265.397026 341.535516 34.294312 56.943913 63.853961 106.721851 81.129081 135.833627z m465.276559-61.358666c-42.228071 167.760608-87.847183 263.797477-112.35226 301.994687a25.080915 25.080915 0 0 1-34.422276 7.485885c-45.619113-28.343993-120.605929-120.797875-185.739529-247.865978 17.211138-29.047794 46.834769-78.953696 81.257045-136.089555 152.852819-253.752315 233.534027-322.852794 265.652953-341.66348a15.61159 15.61159 0 0 1 22.777566 7.741813l0.127963 0.255928c23.92924 57.83966 8.573578 225.66425-37.365444 408.204682z m144.535169-452.480174C1077.270713 16.476625 1028.452504 2.592548 1001.963987 0.609108c-98.980038-7.357921-215.491124 113.759863-390.673635 404.621694-17.659011 29.23974-34.038384 56.624004-48.178389 80.361298-14.076024-23.673312-30.455396-50.929612-48.17839-80.361298C339.68708 114.304989 222.664139-6.748813 124.259939 0.609108 97.70744 2.592548 48.953213 16.476625 19.777455 87.048689-20.531158 184.365197 9.732293 374.775406 31.358183 479.577799 63.988965 637.933064 116.582108 795.584527 165.336334 881.320307c32.374854 57.007895 64.749708 86.119671 101.923207 91.494153 5.950319 0.895747 11.96462 1.279639 17.978921 1.279638 109.729002 0 214.147503-143.191548 277.873501-252.344712 63.662015 109.153164 168.080517 252.408695 277.809519 252.408694 6.014301 0 12.092584-0.447873 18.042903-1.279638 37.109517-5.438464 69.484371-34.55024 101.923206-91.494153 48.690245-85.73578 101.283387-243.387243 133.914169-401.742508 21.625891-104.802393 51.825359-295.212602 11.644711-392.52911z" fill="#FA9D3B" p-id="7493"></path></svg>